<?xml version="1.0" encoding="UTF-8"?>
<svg id="Layer_8" data-name="Layer 8" xmlns="http://www.w3.org/2000/svg" viewBox="0 0 350 350">
  <path d="m279.51,315.38c10.44,0,19.85-4.39,26.5-11.43-15.83-11.89-36.7-24.14-64.24-36.34,1.2-7.36,1.83-14.91,1.83-22.61,0-3.21-.12-6.4-.33-9.56,17.7,8.08,33.99,15.59,48.65,22.41,9.04,4.2,17.14,7.99,24.06,11.23V118.36c-25.4.02-60.19,8.03-108.36,33.16-7.21-7.97-15.33-15.11-24.2-21.24,17.35-8.8,33.36-16.84,47.82-24.05,23.33-11.63,40.44-20.02,46.81-23.15,10.15-4.98,22.47-11.07,37.41-18.51-2.9-17.24-17.88-30.38-35.95-30.38H117.1c-8.23,18.22-15.69,41.57-21.55,71.65-10.95.67-21.56,2.6-31.69,5.65,3.94-19.04,7.63-36.56,11.01-52.36,1.99-9.31,3.8-17.7,5.37-24.94h-9c-20.14,0-36.46,16.33-36.46,36.46v101.19c18.08-17.14,42.5-27.66,69.37-27.66,55.69,0,100.84,45.15,100.84,100.84,0,27.37-10.91,52.18-28.6,70.35h103.12Z" fill="#fff"/>
  <circle cx="104.15" cy="246.01" r="69.37" fill="#fff"/>
</svg>